<svg xmlns="http://www.w3.org/2000/svg" xmlns:xlink="http://www.w3.org/1999/xlink" version="1.1" x="0px" y="0px" style="enable-background:new 0 0 100 100;" xml:space="preserve" viewBox="58.7 47.79 21.35 19.61">
  <g>
    <path d="M76.51,62.51c1.41-1.5,1.76-3.55,1.76-3.55c0.24-2.72,1.21-4.46,1.21-4.46c1.43-2.55-0.22-4.09-0.67-4.46c-5.25-4.31-13.16-1.11-13.16-1.11c-9.72,4.23-6.4,14.25-6.4,14.25s0.49,1.88,0.72,2.48c1.47,3.69,7.49,0.36,7.49,0.36c3.54-1.41,5.66-1.99,6.68-2.21C75.03,63.61,75.88,63.18,76.51,62.51z M68.78,57.59c-0.67,0-1.21-0.54-1.21-1.21s0.54-1.21,1.21-1.21c0.67,0,1.21,0.54,1.21,1.21S69.44,57.59,68.78,57.59z"/>
  </g>
</svg>