<svg xmlns="http://www.w3.org/2000/svg" xmlns:xlink="http://www.w3.org/1999/xlink" version="1.1" x="0px" y="0px" style="enable-background:new 0 0 100 100;" xml:space="preserve" viewBox="29.3 79.42 25.52 13.73">
  <g>
    <path d="M53.99,80.17c-6.27-3.03-17.23,4.11-17.23,4.11c-1.33,1.05-2.57-0.18-2.57-0.18c-1.33-1.21-2.97-0.34-2.97-0.34c-2.21,1.35-1.91,4.38-1.91,4.38c0.15,5.57,5.5,4.37,5.5,4.37c3.79-0.88,6.21,0.23,6.21,0.23c2.29,0.64,3.91,0.39,4.67,0.19c0.29-0.08,0.56-0.19,0.82-0.33c2.98-1.64,3.68-3.99,4.4-5.62c1.1-2.5,2.38-3.65,3.41-4.66C55.6,81.06,53.99,80.17,53.99,80.17z M45.45,87.89c-0.17,0.64-0.84,1.03-1.48,0.85c-0.64-0.17-1.03-0.84-0.85-1.48c0.17-0.64,0.84-1.03,1.48-0.85S45.62,87.24,45.45,87.89z"/>
  </g>
</svg>