<svg xmlns="http://www.w3.org/2000/svg" xmlns:xlink="http://www.w3.org/1999/xlink" version="1.1" x="0px" y="0px" style="enable-background:new 0 0 100 100;" xml:space="preserve" viewBox="22.81 47.78 20 16.12">
  <g>
    <path d="M38.39,56.55c-6.47-2.04-7.62-3.73-9.54-5.75c-2.01-2.11-2.91-2.52-2.91-2.52c-3-1.74-3.06,1.6-3.06,1.6c-0.41,3.63,1.25,8.88,1.25,8.88c1.58,4.5,5.72,4.89,5.72,4.89c7.1,1.16,11.07-1.97,12.59-3.5C44.34,58.25,38.39,56.55,38.39,56.55z M31.36,58.1c-0.17,0.64-0.84,1.03-1.48,0.85c-0.64-0.17-1.03-0.84-0.85-1.48c0.17-0.64,0.84-1.03,1.48-0.85C31.16,56.79,31.54,57.46,31.36,58.1z"/>
  </g>
</svg>