<svg xmlns="http://www.w3.org/2000/svg" xmlns:xlink="http://www.w3.org/1999/xlink" version="1.1" x="0px" y="0px" style="enable-background:new 0 0 100 100;" xml:space="preserve" viewBox="11.23 61.73 20.13 21.85">
  <g>
    <path d="M30.73,76.48c0,0-6.42-4.2-9.31-11c0,0-1.08-2.34-1.27-3.04c0,0-0.12-1.32-1.66-0.36c0,0-4.49,2.17-6.45,3.74c0,0-1.03,0.79-0.76,2.3c0,0,1.21,9.17,1.34,11.85c0.02,0.37,0.05,0.98,0.84,1.38c0,0,2.31,1.16,3.29,1.97c0,0,0.6,0.5,1.43,0.11c0,0,6.04-1.76,12.41-5.29C30.58,78.14,32.24,77.56,30.73,76.48z M18.59,75.95c-0.17,0.64-0.84,1.03-1.48,0.85c-0.64-0.17-1.03-0.84-0.85-1.48c0.17-0.64,0.84-1.03,1.48-0.85C18.38,74.65,18.76,75.31,18.59,75.95z"/>
  </g>
</svg>