<svg xmlns="http://www.w3.org/2000/svg" viewBox="0 0 38 38.17" width="38" height="38.17"><rect fill="#35b0f3" x="1" y="1" width="36" height="36" rx="2.57" /><g id="icons"><path id="path11" fill="#833007" d="M37 3.57v24.07l-5.62-17.59H9L6.28 1h28.15A2.58 2.58 0 0 1 37 3.57z" /><path id="path13" fill="#fff" d="M32 9.28H9.59L7.07 1h-1.6l2.64 8.73.34 1.09h22.37l4.71 14.75L37 30.16v-5.07z"/><path id="path15" fill="#fff" d="M23.77 11.04a.95.95 0 0 0-.9.71l-1.56 4.81c0 .12-.12.22-.24.27-1 .41-5.61 2.35-6.39 3-.37.31-.66.71-.81 1.17l-2.48 5.49c-.24.49 0 1.08.45 1.33l4.59 2.46c.15.1.32.13.49.13.38 0 .73-.2.91-.54a1 1 0 0 0-.42-1.39L14 26.68a.43.43 0 0 1-.19-.55l.65-1.44a.43.43 0 0 1 .67-.15c1.39 1.2 5.69 4.51 6.51 4.67 1.44.36 2.46.1 2.83-1l.59-1.54L33.08 37h.68l-8.47-10.91c.63-1.65 1.37-3.53 1.6-4.19.1-.18.19-.28.36-.3l5.45-.44c.51-.1.9-.8.88-1.33a1 1 0 0 0-1.05-1l-6.86.29c-.43 0-.81.3-1 .69L22.7 24a.43.43 0 0 1-.6.2 24.57 24.57 0 0 1-3.42-2.94.44.44 0 0 1 .1-.68l4.07-2.08a1 1 0 0 0 .45-.56l1.51-5.58c.26-.81-.41-1.35-1.04-1.32z" /><path fill="#fff" d="M15.22 18.32a2.32 2.32 0 1 0 .14-4.64 2.32 2.32 0 0 0-.14 4.64z" id="path19"/><path id="path23" stroke="#fff" stroke-miterlimit="10" stroke-width="1.03" fill="#fff" d="M20 29.57s-1.49.72-.87 1.54 1.95.62 2 .16-1.13-1.7-1.13-1.7z" /></g></svg>