<svg xmlns="http://www.w3.org/2000/svg" xmlns:xlink="http://www.w3.org/1999/xlink" version="1.1" x="0px" y="0px" viewBox="0 0 100 125" style="enable-background:new 0 0 100 100;" xml:space="preserve">
  <g>
    <path d="M13.26,55.69c0.67,1.98,2.4,0.92,2.85,0.49c3.69-3.43,1.31-9.86,1.31-9.86c-2.39-6.13-5.4-5.5-5.4-5.5c-1.09,0.14-1.22,1.42-1.22,2.04c0,2.61-0.8,2.96-1.51,3.64c-1.02,0.98-1.14,2.74-1.14,2.74C7.87,51.81,10.81,53,10.81,53C12.56,53.63,12.97,54.83,13.26,55.69z M11.18,49.26c0-0.67,0.54-1.21,1.21-1.21s1.21,0.54,1.21,1.21s-0.54,1.21-1.21,1.21S11.18,49.92,11.18,49.26z"/>
  </g>
</svg>
