<svg xmlns="http://www.w3.org/2000/svg" xmlns:xlink="http://www.w3.org/1999/xlink" version="1.1" x="0px" y="0px" viewBox="0 0 100 125" style="enable-background:new 0 0 100 100;" xml:space="preserve">
  <g>
    <path d="M52.65,34.5c-0.75-0.23-1.77-0.36-3.13-0.18c0,0-4.81,0.4-7.25-2.69c0,0-4.55-5.45-7.61-1.88c0,0-2.72,2.38,0.77,8.28c0,0,1.22,2.17,2.19,3.69c0.54,0.85,1.52,2.69,0.54,4c0,0-2.3,3.92,2.36,5.88c0,0,2.4,0.78,5.11,3.44c1.88,1.84,5.97,3.19,7.44-1.11c0,0,0.46-2.75-1.54-5.15c0,0-3.07-4.52,0.65-7.57c0,0,2.36-1.3,2.64-3.49C54.99,36.29,54.02,34.92,52.65,34.5z M44.24,41.36c-0.67,0-1.21-0.54-1.21-1.21s0.54-1.21,1.21-1.21c0.67,0,1.21,0.54,1.21,1.21S44.9,41.36,44.24,41.36z"/>
  </g>
</svg>
