<svg xmlns="http://www.w3.org/2000/svg" xmlns:xlink="http://www.w3.org/1999/xlink" version="1.1" x="0px" y="0px" viewBox="0 0 100 125" style="enable-background:new 0 0 100 100;" xml:space="preserve">
  <g>
    <path d="M64.31,72.28c-2.1,1.91-3.17,0.23-4.11-0.19c-1.6-0.7-1.9,1.68-1.9,1.68c-0.21,1.64,0.6,4.5,0.6,4.5c0.82,3.28,3.09,3.5,3.09,3.5c1.44,0.38,2.11-1.03,2.11-1.03c1.02-1.73,1.88-4.48,2.44-6C67.56,72,65.37,71.32,64.31,72.28z M62.9,78.26c-0.37,0.56-1.12,0.71-1.67,0.34c-0.56-0.37-0.71-1.12-0.34-1.67c0.37-0.56,1.12-0.71,1.67-0.34C63.12,76.95,63.27,77.7,62.9,78.26z"/>
  </g>
</svg>
