<svg xmlns="http://www.w3.org/2000/svg" xmlns:xlink="http://www.w3.org/1999/xlink" version="1.1" x="0px" y="0px" viewBox="0 0 100 125" style="enable-background:new 0 0 100 100;" xml:space="preserve">
  <g>
    <path d="M90.08,62.1c-0.7-2.07-1.55-1.99-1.55-1.99c-0.9-0.12-1.5,0.98-1.5,0.98c-2.56,3.64-4.97,5.45-4.97,5.45   c-1.21,0.91-1.26,1.27-1.26,1.27c-0.74,1.47,1.1,1.57,1.1,1.57c4.54,0.05,7.86-1.35,7.86-1.35c1.38-0.48,1.29-1.51,1.29-1.51   C91.28,64.61,90.08,62.1,90.08,62.1z M88.5,66.32c-0.37,0.56-1.12,0.71-1.67,0.34c-0.56-0.37-0.71-1.12-0.34-1.67   s1.12-0.71,1.67-0.34C88.72,65.02,88.87,65.77,88.5,66.32z" />
  </g>
</svg>