<svg xmlns="http://www.w3.org/2000/svg" xmlns:xlink="http://www.w3.org/1999/xlink" version="1.1" x="0px" y="0px" viewBox="0 0 100 125" style="enable-background:new 0 0 100 100;" xml:space="preserve">
  <g>
    <path d="M82.88,43.02c-0.61,1.07,0.08,1.59,0.08,1.59c1.71,1.85,3.33,2.16,4.33,2.2c0.53,0.02,1.03-0.19,1.49-0.44   c3.1-1.7,3.09-7.11,3.09-7.11c0.11-4.04-3.05-7.51-3.05-7.51c-0.66-0.86-1.38-0.71-1.38-0.71c-2.79,0.2-4.12,2.15-4.12,2.15   c-0.55,0.63-0.29,1.21-0.23,1.56c0.25,1.57-0.1,2.46-0.57,3.09c-0.52,0.7-0.09,1.16,0.11,1.5C83.89,41.56,82.88,43.02,82.88,43.02z    M87.06,38.4c0.67,0,1.21,0.54,1.21,1.21s-0.54,1.21-1.21,1.21c-0.67,0-1.21-0.54-1.21-1.21S86.39,38.4,87.06,38.4z"/>
  </g>
</svg>