<svg xmlns="http://www.w3.org/2000/svg" xmlns:xlink="http://www.w3.org/1999/xlink" version="1.1" x="0px" y="0px" viewBox="0 0 100 125" style="enable-background:new 0 0 100 100;" xml:space="preserve">
  <g>
    <path d="M26.5,40.92c1.4-1.62,0.56-3.34,0.56-3.34c-0.5-1.22-3.28-5.29-3.28-5.29c-1.05-1.64-2.99-0.74-2.99-0.74c-1,0.33-2.91,2.35-2.91,2.35c-1.34,1.41-0.94,2.82-0.39,3.51c1.49,1.84,5.17,4.23,5.17,4.23C24.8,43.06,26.5,40.92,26.5,40.92z M22.5,37.92c-0.67,0-1.21-0.54-1.21-1.21s0.54-1.21,1.21-1.21s1.21,0.54,1.21,1.21S23.17,37.92,22.5,37.92z"/>
  </g>
</svg>
