<svg xmlns="http://www.w3.org/2000/svg" xmlns:xlink="http://www.w3.org/1999/xlink" version="1.1" x="0px" y="0px" viewBox="0 0 100 125" style="enable-background:new 0 0 100 100;" xml:space="preserve">
  <g>
    <path d="M41.46,76.2c1.48,1.59,3.22,0.88,4.16,0c0.85-0.8,1.03-1.2,1.36-1.61c1.18-1.42,2.23-1.55,3.14-1.69c2.46-0.37,2.38-2.83,2.36-3.94c-0.11-4.7-1.72-6.63-1.72-6.63c-1.18-1.39-2.95-0.4-3.68,0.16c-5.75,4.44-6.21,8.06-6.21,8.06C40.26,73.36,40.71,75.39,41.46,76.2z M46.6,69.07c0.17-0.64,0.84-1.03,1.48-0.85c0.64,0.17,1.03,0.84,0.85,1.48c-0.17,0.64-0.84,1.03-1.48,0.85C46.8,70.38,46.42,69.71,46.6,69.07z"/>
  </g>
</svg>
