<svg xmlns="http://www.w3.org/2000/svg" xmlns:xlink="http://www.w3.org/1999/xlink" version="1.1" x="0px" y="0px" viewBox="0 0 100 125" style="enable-background:new 0 0 100 100;" xml:space="preserve">
  <g>
    <path d="M84.54,76.13c-1.26-1.1-4.62-2.4-6.28-2.89c-3.23-0.96-5.22,1.26-5.22,1.26c-1.68,1.9-2.53,4.08-2.78,5.63c-0.24,1.5-1.52,2.67-1.52,2.67c-1.68,1.37-0.88,2.67-0.88,2.67c0.42,0.89,0.94,1.62,1.34,2.12c0.63,0.8,1.61,1.3,2.63,1.19c0.85-0.09,1.1-0.33,1.44-0.49c1.26-0.58,2.36-0.57,2.36-0.57s2.97-0.08,3.94-0.18c1.99-0.22,3.9-2.48,3.9-2.48c1.72-2.65,2.25-4.45,2.25-4.45C86.63,77.88,84.54,76.13,84.54,76.13z M78.45,80.32c-0.17,0.64-0.84,1.03-1.48,0.85c-0.64-0.17-1.03-0.84-0.85-1.48s0.84-1.03,1.48-0.85C78.25,79.01,78.63,79.67,78.45,80.32z"/>
  </g>
</svg>