<svg xmlns="http://www.w3.org/2000/svg" xmlns:xlink="http://www.w3.org/1999/xlink" version="1.1" x="0px" y="0px" viewBox="0 0 100 125" style="enable-background:new 0 0 100 100;" xml:space="preserve"><g><path d="M28.7,25.7c6.67,0.72,4.66-4.82,4.66-4.82c-1.04-3.21-0.64-6.51-0.64-6.51C32.88,4.65,23,7.14,23,7.14   c-2.03,0.33-3.69,1.17-4.89,1.99c-1.52,1.03-2.64,2.55-3.19,4.3C11.32,24.92,28.7,25.7,28.7,25.7z M24.04,15.1   c0.67,0,1.21,0.54,1.21,1.21c0,0.67-0.54,1.21-1.21,1.21c-0.67,0-1.21-0.54-1.21-1.21C22.83,15.64,23.37,15.1,24.04,15.1z"/><path d="M42.55,25.48c3.37,3.11,7.31,3.05,7.31,3.05c4.82,0.01,9.08-3.62,9.08-3.62c4.18-3.94,1.27-4.92,0-5.22   c-3.33-0.78-4.42-1.45-5.46-3.7c-1.39-2.99-3.38-4.04-4.63-4.41c-1.34-0.39-4.04-1.06-4.04-1.06c-7.47-1.61-8.52,2.25-8.52,2.25   C34.19,19.21,42.55,25.48,42.55,25.48z M47.76,19.34c0.67,0,1.21,0.54,1.21,1.21s-0.54,1.21-1.21,1.21s-1.21-0.54-1.21-1.21   S47.1,19.34,47.76,19.34z"/><path d="M62.3,16.11c0,0,3.36,0.83,4.28,4.09c0.24,0.86,1.22,2.28,3.53,0.57c0,0,2.73-1.88,3.9-5.86c0.35-1.19,0.79-2.87,0.17-5.07   c0,0-0.45-2.31-3.32-1.5c0,0-7.39,1.96-9.64,5.36C60.86,14.25,60.26,15.52,62.3,16.11z M69.28,12.46c0.67,0,1.21,0.54,1.21,1.21   s-0.54,1.21-1.21,1.21s-1.21-0.54-1.21-1.21S68.61,12.46,69.28,12.46z"/><path d="M61.24,41.13c-1.18,3.47,0.7,3.96,0.7,3.96l2.22,1c2.03,1.35,4.45-1.11,4.45-1.11c8.59-9.1,12.01-17.46,12.01-17.46   c3.8-7.12-3-4.04-3-4.04C63.69,29.11,61.24,41.13,61.24,41.13z M71.31,33.44c0.67,0,1.21,0.54,1.21,1.21s-0.54,1.21-1.21,1.21   c-0.67,0-1.21-0.54-1.21-1.21S70.65,33.44,71.31,33.44z"/><path d="M52.65,34.5c-0.75-0.23-1.77-0.36-3.13-0.18c0,0-4.81,0.4-7.25-2.69c0,0-4.55-5.45-7.61-1.88c0,0-2.72,2.38,0.77,8.28   c0,0,1.22,2.17,2.19,3.69c0.54,0.85,1.52,2.69,0.54,4c0,0-2.3,3.92,2.36,5.88c0,0,2.4,0.78,5.11,3.44   c1.88,1.84,5.97,3.19,7.44-1.11c0,0,0.46-2.75-1.54-5.15c0,0-3.07-4.52,0.65-7.57c0,0,2.36-1.3,2.64-3.49   C54.99,36.29,54.02,34.92,52.65,34.5z M44.24,41.36c-0.67,0-1.21-0.54-1.21-1.21s0.54-1.21,1.21-1.21c0.67,0,1.21,0.54,1.21,1.21   S44.9,41.36,44.24,41.36z"/><path d="M76.51,62.51c1.41-1.5,1.76-3.55,1.76-3.55c0.24-2.72,1.21-4.46,1.21-4.46c1.43-2.55-0.22-4.09-0.67-4.46   c-5.25-4.31-13.16-1.11-13.16-1.11c-9.72,4.23-6.4,14.25-6.4,14.25s0.49,1.88,0.72,2.48c1.47,3.69,7.49,0.36,7.49,0.36   c3.54-1.41,5.66-1.99,6.68-2.21C75.03,63.61,75.88,63.18,76.51,62.51z M68.78,57.59c-0.67,0-1.21-0.54-1.21-1.21   s0.54-1.21,1.21-1.21c0.67,0,1.21,0.54,1.21,1.21S69.44,57.59,68.78,57.59z"/><path d="M26.5,40.92c1.4-1.62,0.56-3.34,0.56-3.34c-0.5-1.22-3.28-5.29-3.28-5.29c-1.05-1.64-2.99-0.74-2.99-0.74   c-1,0.33-2.91,2.35-2.91,2.35c-1.34,1.41-0.94,2.82-0.39,3.51c1.49,1.84,5.17,4.23,5.17,4.23C24.8,43.06,26.5,40.92,26.5,40.92z    M22.5,37.92c-0.67,0-1.21-0.54-1.21-1.21s0.54-1.21,1.21-1.21s1.21,0.54,1.21,1.21S23.17,37.92,22.5,37.92z"/><path d="M38.39,56.55c-6.47-2.04-7.62-3.73-9.54-5.75c-2.01-2.11-2.91-2.52-2.91-2.52c-3-1.74-3.06,1.6-3.06,1.6   c-0.41,3.63,1.25,8.88,1.25,8.88c1.58,4.5,5.72,4.89,5.72,4.89c7.1,1.16,11.07-1.97,12.59-3.5C44.34,58.25,38.39,56.55,38.39,56.55   z M31.36,58.1c-0.17,0.64-0.84,1.03-1.48,0.85c-0.64-0.17-1.03-0.84-0.85-1.48c0.17-0.64,0.84-1.03,1.48-0.85   C31.16,56.79,31.54,57.46,31.36,58.1z"/><path d="M13.26,55.69c0.67,1.98,2.4,0.92,2.85,0.49c3.69-3.43,1.31-9.86,1.31-9.86c-2.39-6.13-5.4-5.5-5.4-5.5   c-1.09,0.14-1.22,1.42-1.22,2.04c0,2.61-0.8,2.96-1.51,3.64c-1.02,0.98-1.14,2.74-1.14,2.74C7.87,51.81,10.81,53,10.81,53   C12.56,53.63,12.97,54.83,13.26,55.69z M11.18,49.26c0-0.67,0.54-1.21,1.21-1.21s1.21,0.54,1.21,1.21s-0.54,1.21-1.21,1.21   S11.18,49.92,11.18,49.26z"/><path d="M41.46,76.2c1.48,1.59,3.22,0.88,4.16,0c0.85-0.8,1.03-1.2,1.36-1.61c1.18-1.42,2.23-1.55,3.14-1.69   c2.46-0.37,2.38-2.83,2.36-3.94c-0.11-4.7-1.72-6.63-1.72-6.63c-1.18-1.39-2.95-0.4-3.68,0.16c-5.75,4.44-6.21,8.06-6.21,8.06   C40.26,73.36,40.71,75.39,41.46,76.2z M46.6,69.07c0.17-0.64,0.84-1.03,1.48-0.85s1.03,0.84,0.85,1.48   c-0.17,0.64-0.84,1.03-1.48,0.85C46.8,70.38,46.42,69.71,46.6,69.07z"/><path d="M30.73,76.48c0,0-6.42-4.2-9.31-11c0,0-1.08-2.34-1.27-3.04c0,0-0.12-1.32-1.66-0.36c0,0-4.49,2.17-6.45,3.74   c0,0-1.03,0.79-0.76,2.3c0,0,1.21,9.17,1.34,11.85c0.02,0.37,0.05,0.98,0.84,1.38c0,0,2.31,1.16,3.29,1.97c0,0,0.6,0.5,1.43,0.11   c0,0,6.04-1.76,12.41-5.29C30.58,78.14,32.24,77.56,30.73,76.48z M18.59,75.95c-0.17,0.64-0.84,1.03-1.48,0.85   s-1.03-0.84-0.85-1.48c0.17-0.64,0.84-1.03,1.48-0.85C18.38,74.65,18.76,75.31,18.59,75.95z"/><path d="M64.31,72.28c-2.1,1.91-3.17,0.23-4.11-0.19c-1.6-0.7-1.9,1.68-1.9,1.68c-0.21,1.64,0.6,4.5,0.6,4.5   c0.82,3.28,3.09,3.5,3.09,3.5c1.44,0.38,2.11-1.03,2.11-1.03c1.02-1.73,1.88-4.48,2.44-6C67.56,72,65.37,71.32,64.31,72.28z    M62.9,78.26c-0.37,0.56-1.12,0.71-1.67,0.34c-0.56-0.37-0.71-1.12-0.34-1.67c0.37-0.56,1.12-0.71,1.67-0.34   C63.12,76.95,63.27,77.7,62.9,78.26z"/><path d="M53.99,80.17c-6.27-3.03-17.23,4.11-17.23,4.11c-1.33,1.05-2.57-0.18-2.57-0.18c-1.33-1.21-2.97-0.34-2.97-0.34   c-2.21,1.35-1.91,4.38-1.91,4.38c0.15,5.57,5.5,4.37,5.5,4.37c3.79-0.88,6.21,0.23,6.21,0.23c2.29,0.64,3.91,0.39,4.67,0.19   c0.29-0.08,0.56-0.19,0.82-0.33c2.98-1.64,3.68-3.99,4.4-5.62c1.1-2.5,2.38-3.65,3.41-4.66C55.6,81.06,53.99,80.17,53.99,80.17z    M45.45,87.89c-0.17,0.64-0.84,1.03-1.48,0.85c-0.64-0.17-1.03-0.84-0.85-1.48c0.17-0.64,0.84-1.03,1.48-0.85   S45.62,87.24,45.45,87.89z"/><path d="M84.54,76.13c-1.26-1.1-4.62-2.4-6.28-2.89c-3.23-0.96-5.22,1.26-5.22,1.26c-1.68,1.9-2.53,4.08-2.78,5.63   c-0.24,1.5-1.52,2.67-1.52,2.67c-1.68,1.37-0.88,2.67-0.88,2.67c0.42,0.89,0.94,1.62,1.34,2.12c0.63,0.8,1.61,1.3,2.63,1.19   c0.85-0.09,1.1-0.33,1.44-0.49c1.26-0.58,2.36-0.57,2.36-0.57s2.97-0.08,3.94-0.18c1.99-0.22,3.9-2.48,3.9-2.48   c1.72-2.65,2.25-4.45,2.25-4.45C86.63,77.88,84.54,76.13,84.54,76.13z M78.45,80.32c-0.17,0.64-0.84,1.03-1.48,0.85   c-0.64-0.17-1.03-0.84-0.85-1.48s0.84-1.03,1.48-0.85C78.25,79.01,78.63,79.67,78.45,80.32z"/><path d="M82.88,43.02c-0.61,1.07,0.08,1.59,0.08,1.59c1.71,1.85,3.33,2.16,4.33,2.2c0.53,0.02,1.03-0.19,1.49-0.44   c3.1-1.7,3.09-7.11,3.09-7.11c0.11-4.04-3.05-7.51-3.05-7.51c-0.66-0.86-1.38-0.71-1.38-0.71c-2.79,0.2-4.12,2.15-4.12,2.15   c-0.55,0.63-0.29,1.21-0.23,1.56c0.25,1.57-0.1,2.46-0.57,3.09c-0.52,0.7-0.09,1.16,0.11,1.5C83.89,41.56,82.88,43.02,82.88,43.02z    M87.06,38.4c0.67,0,1.21,0.54,1.21,1.21s-0.54,1.21-1.21,1.21c-0.67,0-1.21-0.54-1.21-1.21S86.39,38.4,87.06,38.4z"/><path d="M90.08,62.1c-0.7-2.07-1.55-1.99-1.55-1.99c-0.9-0.12-1.5,0.98-1.5,0.98c-2.56,3.64-4.97,5.45-4.97,5.45   c-1.21,0.91-1.26,1.27-1.26,1.27c-0.74,1.47,1.1,1.57,1.1,1.57c4.54,0.05,7.86-1.35,7.86-1.35c1.38-0.48,1.29-1.51,1.29-1.51   C91.28,64.61,90.08,62.1,90.08,62.1z M88.5,66.32c-0.37,0.56-1.12,0.71-1.67,0.34c-0.56-0.37-0.71-1.12-0.34-1.67   s1.12-0.71,1.67-0.34C88.72,65.02,88.87,65.77,88.5,66.32z"/></g><text x="0" y="115" fill="#000000" font-size="5px" font-weight="bold" font-family="'Helvetica Neue', Helvetica, Arial-Unicode, Arial, Sans-serif">Created by Jerry Cannary</text><text x="0" y="120" fill="#000000" font-size="5px" font-weight="bold" font-family="'Helvetica Neue', Helvetica, Arial-Unicode, Arial, Sans-serif">from the Noun Project</text></svg>