<svg xmlns="http://www.w3.org/2000/svg" viewBox="0 0 37.81 38.12" width="37.81" height="38.12"><rect fill="#35b0f3" x="1" y="1" width="36" height="36" rx="2.57" /><g id="icons"><path fill="#833007" d="M36.91 3.63v30.86a2.59 2.59 0 0 1-2.57 2.57h-6.23l-11.58-36h17.81a2.59 2.59 0 0 1 2.57 2.57z" /><path fill="#fff" d="M17.14 1.06h-1.63l11.77 36h1.63z"/><path fill-rule="evenodd" fill="#fff" d="M9.67 6.81a2.24 2.24 0 1 1-.78 4.42 2.24 2.24 0 1 1 .78-4.42zM22 23.52c-1-1-4.2-3.2-5.55-4.34a1.61 1.61 0 0 0-1.31-.35 1.22 1.22 0 0 0-.37.16 31.61 31.61 0 0 1-3 1.11.44.44 0 0 1-.57-.43c.05-1.11.25-3.44.34-4.49a.78.78 0 0 1 .57-.68l2.25-.6a.55.55 0 0 0 .29-.23l2.39-4v-.06l.13-.47a1.18 1.18 0 0 0-1-1.51.61.61 0 0 0-.61.24l-2.47 3.48a.83.83 0 0 1-.5.31l-5.86 1a.77.77 0 0 0-.64.71l-.49 8.18a3.65 3.65 0 0 0 1 2.94c.38.42 6.64 3 6.64 3l7.61 3.21c1.16.23 2.35-.64 1.47-1.92 0 0-7-3.34-7.12-3.42l-1.76-1a.76.76 0 0 1 0-1.31l1.52-1a.77.77 0 0 1 .85 0l4.72 3.26c1.93.59 1.82-1.47 1.47-1.79z"/><path fill="#fff" d="M21.3 37h-.63L15 26.17l-1.87-3.57.5-.26.28.53L15 24.98l2.24 4.34L21.3 37z"/><path stroke="#fff" stroke-miterlimit="10" stroke-width="1.03" fill="#fff" d="M4.57 23.53s-1.49.72-.87 1.55 2 .61 2 .15-1.13-1.7-1.13-1.7z" /></g></svg>