<svg xmlns="http://www.w3.org/2000/svg" viewBox="0 0 38 38.01" width="38" height="38.01"><rect fill="#35b0f3" x="1" y="1" width="36" height="36" rx="2.57" /><g id="icons"><path id="path11" fill="#833007" d="M37 3.46v31.08A2.47 2.47 0 0 1 34.54 37h-17v-.09c.18-1.56 4.49-12.16 5.4-14.4L28.67 1h5.87a2.44 2.44 0 0 1 2.08 1.16l.11.17A2.54 2.54 0 0 1 37 3.46z" /><path id="path13" fill="#fff" d="M29.47 1l-5.81 21.75L18.3 37h-1.55l5.44-14.74L27.88 1z" /><path fill="#fff" d="M13.48 10A2.9 2.9 0 0 0 11 11.62l-2.66 5.81a3.34 3.34 0 0 0-.18 1.32l.74 6.95v.14L7 31.2c-.81 1.91 2.02 3.17 2.9 1.28l2.1-5.95c.1-.14.1-.29.1-.44v-.22L11.71 22c0-.22.15-.38.35-.3l.22.1c-.17 5.06-.32 10.2-.47 15.28h.51l.46-15.11 2.98 1.02c.1 0 .17.11.2.21l1 4c.59 1.53 2.82 1.26 3.04-.36v-.42l-1.26-5a1.61 1.61 0 0 0-1-1.05L13.6 18.8c-.17-.1-.25-.26-.17-.42l1.63-3.55c.1-.2.34-.25.5-.1L17.2 16c.13.12.28.21.45.26l4.48.88c.6.1 1.16-.3 1.33-.87.2-.66-.17-1.35-.83-1.56h-.1L18.81 14c-.1 0-.12-.1-.16-.1l-3.11-3.12a2.87 2.87 0 0 0-1.77-.78h-.29z" /><path id="path17" fill="#fff" d="M15.22 9.36a2.37 2.37 0 1 0-2.57-2.15 2.37 2.37 0 0 0 2.57 2.15z" /><path id="path21" stroke-miterlimit="10" stroke-width="1.03" stroke="#fff" fill="#fff" d="M6.76 19.62s-1.49.72-.87 1.54 2 .62 2 .15-1.13-1.69-1.13-1.69z" /></g></svg>